<mxfile host="www.draw.io" modified="2020-04-24T15:32:13.621Z" agent="5.0 (Macintosh; Intel Mac OS X 10_15_4) AppleWebKit/537.36 (KHTML, like Gecko) Chrome/81.0.4044.122 Safari/537.36" etag="s8MWuuoJK3JR5MIdmC7p" version="13.0.1" type="github">
  <diagram id="TsVsnnMCk7mku42cMs8Y" name="Page-1">
    <mxGraphModel dx="2251" dy="2171" grid="1" gridSize="10" guides="1" tooltips="1" connect="1" arrows="1" fold="1" page="1" pageScale="1" pageWidth="850" pageHeight="1100" math="0" shadow="0">
      <root>
        <mxCell id="0" />
        <mxCell id="1" parent="0" />
        <mxCell id="Tz1nUCaXygPvqpUOyqsq-44" value="" style="rounded=0;whiteSpace=wrap;html=1;fillColor=#d80073;strokeColor=#A50040;fontColor=#ffffff;" parent="1" vertex="1">
          <mxGeometry x="-240" y="470" width="1930" height="200" as="geometry" />
        </mxCell>
        <mxCell id="Tz1nUCaXygPvqpUOyqsq-43" value="" style="rounded=0;whiteSpace=wrap;html=1;fillColor=#1ba1e2;strokeColor=#006EAF;fontColor=#ffffff;" parent="1" vertex="1">
          <mxGeometry x="-240" y="270" width="1930" height="200" as="geometry" />
        </mxCell>
        <mxCell id="Tz1nUCaXygPvqpUOyqsq-42" value="" style="rounded=0;whiteSpace=wrap;html=1;fillColor=#008a00;strokeColor=#005700;fontColor=#ffffff;" parent="1" vertex="1">
          <mxGeometry x="-240" y="70" width="1930" height="200" as="geometry" />
        </mxCell>
        <mxCell id="Tz1nUCaXygPvqpUOyqsq-11" value="" style="rounded=1;whiteSpace=wrap;html=1;fillColor=#fff2cc;strokeColor=#d6b656;" parent="1" vertex="1">
          <mxGeometry x="150" y="80" width="210" height="570" as="geometry" />
        </mxCell>
        <mxCell id="Tz1nUCaXygPvqpUOyqsq-6" value="" style="rounded=1;whiteSpace=wrap;html=1;fillColor=#d5e8d4;strokeColor=#82b366;" parent="1" vertex="1">
          <mxGeometry x="440" y="80" width="210" height="570" as="geometry" />
        </mxCell>
        <mxCell id="Tz1nUCaXygPvqpUOyqsq-2" value="next-integration" style="rounded=1;whiteSpace=wrap;html=1;" parent="1" vertex="1">
          <mxGeometry x="200" y="500" width="120" height="60" as="geometry" />
        </mxCell>
        <mxCell id="Tz1nUCaXygPvqpUOyqsq-3" value="integration" style="rounded=1;whiteSpace=wrap;html=1;" parent="1" vertex="1">
          <mxGeometry x="490" y="500" width="120" height="60" as="geometry" />
        </mxCell>
        <mxCell id="Tz1nUCaXygPvqpUOyqsq-4" value="testing" style="rounded=1;whiteSpace=wrap;html=1;" parent="1" vertex="1">
          <mxGeometry x="490" y="320" width="120" height="60" as="geometry" />
        </mxCell>
        <mxCell id="Tz1nUCaXygPvqpUOyqsq-5" value="prod" style="rounded=1;whiteSpace=wrap;html=1;" parent="1" vertex="1">
          <mxGeometry x="490" y="150" width="120" height="60" as="geometry" />
        </mxCell>
        <mxCell id="Tz1nUCaXygPvqpUOyqsq-7" value="BO-V1=PILOT" style="text;html=1;strokeColor=none;fillColor=none;align=center;verticalAlign=middle;whiteSpace=wrap;rounded=0;" parent="1" vertex="1">
          <mxGeometry x="460" y="90" width="160" height="20" as="geometry" />
        </mxCell>
        <mxCell id="Tz1nUCaXygPvqpUOyqsq-9" value="" style="endArrow=classic;html=1;" parent="1" edge="1">
          <mxGeometry width="50" height="50" relative="1" as="geometry">
            <mxPoint x="544.5" y="470" as="sourcePoint" />
            <mxPoint x="544.5" y="390" as="targetPoint" />
          </mxGeometry>
        </mxCell>
        <mxCell id="Tz1nUCaXygPvqpUOyqsq-10" value="" style="endArrow=classic;html=1;" parent="1" edge="1">
          <mxGeometry width="50" height="50" relative="1" as="geometry">
            <mxPoint x="539.5" y="310" as="sourcePoint" />
            <mxPoint x="539.5" y="230" as="targetPoint" />
          </mxGeometry>
        </mxCell>
        <mxCell id="Tz1nUCaXygPvqpUOyqsq-12" value="BO-V2&amp;nbsp;" style="text;html=1;strokeColor=none;fillColor=none;align=center;verticalAlign=middle;whiteSpace=wrap;rounded=0;" parent="1" vertex="1">
          <mxGeometry x="175" y="90" width="160" height="20" as="geometry" />
        </mxCell>
        <mxCell id="Tz1nUCaXygPvqpUOyqsq-13" value="master" style="rounded=1;whiteSpace=wrap;html=1;" parent="1" vertex="1">
          <mxGeometry x="330" y="680" width="120" height="60" as="geometry" />
        </mxCell>
        <mxCell id="Tz1nUCaXygPvqpUOyqsq-14" value="" style="endArrow=classic;html=1;" parent="1" edge="1">
          <mxGeometry width="50" height="50" relative="1" as="geometry">
            <mxPoint x="510" y="620" as="sourcePoint" />
            <mxPoint x="460" y="670" as="targetPoint" />
          </mxGeometry>
        </mxCell>
        <mxCell id="Tz1nUCaXygPvqpUOyqsq-15" value="" style="shape=flexArrow;endArrow=classic;html=1;" parent="1" edge="1">
          <mxGeometry width="50" height="50" relative="1" as="geometry">
            <mxPoint x="270" y="780" as="sourcePoint" />
            <mxPoint x="320" y="730" as="targetPoint" />
          </mxGeometry>
        </mxCell>
        <mxCell id="Tz1nUCaXygPvqpUOyqsq-16" value="&lt;h1&gt;TS-Migration&lt;/h1&gt;&lt;p&gt;Latest code =&amp;nbsp;&lt;br&gt;&lt;br&gt;Code Migration + All V1 features + Fixes&lt;/p&gt;" style="text;html=1;strokeColor=#6c8ebf;fillColor=#dae8fc;spacing=5;spacingTop=-20;whiteSpace=wrap;overflow=hidden;rounded=0;" parent="1" vertex="1">
          <mxGeometry x="190" y="790" width="190" height="120" as="geometry" />
        </mxCell>
        <mxCell id="Tz1nUCaXygPvqpUOyqsq-18" value="" style="endArrow=classic;html=1;" parent="1" edge="1">
          <mxGeometry width="50" height="50" relative="1" as="geometry">
            <mxPoint x="390" y="670" as="sourcePoint" />
            <mxPoint x="330" y="600" as="targetPoint" />
          </mxGeometry>
        </mxCell>
        <mxCell id="Tz1nUCaXygPvqpUOyqsq-19" value="next-testing" style="rounded=1;whiteSpace=wrap;html=1;" parent="1" vertex="1">
          <mxGeometry x="190" y="320" width="120" height="60" as="geometry" />
        </mxCell>
        <mxCell id="Tz1nUCaXygPvqpUOyqsq-20" value="" style="endArrow=classic;html=1;" parent="1" edge="1">
          <mxGeometry width="50" height="50" relative="1" as="geometry">
            <mxPoint x="254.5" y="480" as="sourcePoint" />
            <mxPoint x="254.5" y="400" as="targetPoint" />
          </mxGeometry>
        </mxCell>
        <mxCell id="Tz1nUCaXygPvqpUOyqsq-21" value="" style="rounded=1;whiteSpace=wrap;html=1;fillColor=#f8cecc;strokeColor=#b85450;" parent="1" vertex="1">
          <mxGeometry x="1050" y="80" width="210" height="570" as="geometry" />
        </mxCell>
        <mxCell id="Tz1nUCaXygPvqpUOyqsq-22" value="" style="shape=link;html=1;" parent="1" edge="1">
          <mxGeometry width="50" height="50" relative="1" as="geometry">
            <mxPoint x="760" y="940" as="sourcePoint" />
            <mxPoint x="750" y="20" as="targetPoint" />
          </mxGeometry>
        </mxCell>
        <mxCell id="Tz1nUCaXygPvqpUOyqsq-23" value="&lt;font style=&quot;font-size: 24px&quot;&gt;CODE BASE&lt;br&gt;&lt;a href=&quot;https://github.com/Michelin-Service-Solutions/bulk-order-ui&quot;&gt;https://github.com/Michelin-Service-Solutions/bulk-order-ui&lt;/a&gt;&lt;/font&gt;" style="text;html=1;strokeColor=none;fillColor=none;align=center;verticalAlign=middle;whiteSpace=wrap;rounded=0;" parent="1" vertex="1">
          <mxGeometry x="50" y="-90" width="670" height="110" as="geometry" />
        </mxCell>
        <mxCell id="Tz1nUCaXygPvqpUOyqsq-24" value="&lt;font style=&quot;font-size: 24px&quot;&gt;CODE BASE&lt;br&gt;&lt;a href=&quot;https://github.com/Michelin-Service-Solutions/bulk-order-v2&quot;&gt;https://github.com/Michelin-Service-Solutions/bulk-order-v2&lt;/a&gt;&lt;br&gt;&lt;/font&gt;" style="text;html=1;strokeColor=none;fillColor=none;align=center;verticalAlign=middle;whiteSpace=wrap;rounded=0;" parent="1" vertex="1">
          <mxGeometry x="780" y="-90" width="670" height="110" as="geometry" />
        </mxCell>
        <mxCell id="Tz1nUCaXygPvqpUOyqsq-26" value="bo2-integration" style="rounded=1;whiteSpace=wrap;html=1;" parent="1" vertex="1">
          <mxGeometry x="1100" y="500" width="120" height="60" as="geometry" />
        </mxCell>
        <mxCell id="Tz1nUCaXygPvqpUOyqsq-27" value="bo2-testing" style="rounded=1;whiteSpace=wrap;html=1;" parent="1" vertex="1">
          <mxGeometry x="1100" y="320" width="120" height="60" as="geometry" />
        </mxCell>
        <mxCell id="Tz1nUCaXygPvqpUOyqsq-28" value="" style="endArrow=classic;html=1;" parent="1" edge="1">
          <mxGeometry width="50" height="50" relative="1" as="geometry">
            <mxPoint x="1154.5" y="470" as="sourcePoint" />
            <mxPoint x="1154.5" y="390" as="targetPoint" />
          </mxGeometry>
        </mxCell>
        <mxCell id="Tz1nUCaXygPvqpUOyqsq-29" value="master" style="rounded=1;whiteSpace=wrap;html=1;" parent="1" vertex="1">
          <mxGeometry x="950" y="680" width="120" height="60" as="geometry" />
        </mxCell>
        <mxCell id="Tz1nUCaXygPvqpUOyqsq-31" value="" style="endArrow=classic;html=1;" parent="1" edge="1">
          <mxGeometry width="50" height="50" relative="1" as="geometry">
            <mxPoint x="1040" y="660" as="sourcePoint" />
            <mxPoint x="1090" y="610" as="targetPoint" />
          </mxGeometry>
        </mxCell>
        <mxCell id="Tz1nUCaXygPvqpUOyqsq-33" value="" style="shape=flexArrow;endArrow=classic;html=1;" parent="1" edge="1">
          <mxGeometry width="50" height="50" relative="1" as="geometry">
            <mxPoint x="890" y="780" as="sourcePoint" />
            <mxPoint x="940" y="730" as="targetPoint" />
          </mxGeometry>
        </mxCell>
        <mxCell id="Tz1nUCaXygPvqpUOyqsq-34" value="&lt;h1&gt;ACID-Migration&lt;/h1&gt;&lt;p&gt;Code Migration from TS to ACID&lt;/p&gt;" style="text;html=1;strokeColor=#6c8ebf;fillColor=#dae8fc;spacing=5;spacingTop=-20;whiteSpace=wrap;overflow=hidden;rounded=0;" parent="1" vertex="1">
          <mxGeometry x="810" y="790" width="190" height="120" as="geometry" />
        </mxCell>
        <mxCell id="Tz1nUCaXygPvqpUOyqsq-35" value="" style="endArrow=none;dashed=1;html=1;strokeWidth=6;" parent="1" edge="1" source="mO4okJdVT60lnkn-CCLk-2">
          <mxGeometry width="50" height="50" relative="1" as="geometry">
            <mxPoint x="470" y="710" as="sourcePoint" />
            <mxPoint x="870" y="709.5" as="targetPoint" />
          </mxGeometry>
        </mxCell>
        <mxCell id="Tz1nUCaXygPvqpUOyqsq-36" value="" style="triangle;whiteSpace=wrap;html=1;" parent="1" vertex="1">
          <mxGeometry x="810" y="670" width="60" height="80" as="geometry" />
        </mxCell>
        <mxCell id="Tz1nUCaXygPvqpUOyqsq-38" value="DB-BACKEND" style="shape=cylinder;whiteSpace=wrap;html=1;boundedLbl=1;backgroundOutline=1;" parent="1" vertex="1">
          <mxGeometry x="-190" y="305" width="90" height="120" as="geometry" />
        </mxCell>
        <mxCell id="Tz1nUCaXygPvqpUOyqsq-40" value="DB-BACKEND" style="shape=cylinder;whiteSpace=wrap;html=1;boundedLbl=1;backgroundOutline=1;" parent="1" vertex="1">
          <mxGeometry x="-190" y="500" width="90" height="120" as="geometry" />
        </mxCell>
        <mxCell id="Tz1nUCaXygPvqpUOyqsq-41" value="DB-BACKEND" style="shape=cylinder;whiteSpace=wrap;html=1;boundedLbl=1;backgroundOutline=1;" parent="1" vertex="1">
          <mxGeometry x="-190" y="110" width="90" height="120" as="geometry" />
        </mxCell>
        <mxCell id="XewtoU3do0jHRPtYfVXp-1" value="&lt;font style=&quot;font-size: 24px&quot; color=&quot;#ff1b0a&quot;&gt;DECISIV COMPONENTS&lt;/font&gt;" style="text;html=1;strokeColor=#6c8ebf;fillColor=#dae8fc;align=center;verticalAlign=middle;whiteSpace=wrap;rounded=0;" parent="1" vertex="1">
          <mxGeometry x="240" y="10" width="320" height="60" as="geometry" />
        </mxCell>
        <mxCell id="XewtoU3do0jHRPtYfVXp-2" value="&lt;font style=&quot;font-size: 21px&quot;&gt;JS-CODE&lt;/font&gt;" style="text;html=1;strokeColor=none;fillColor=none;align=center;verticalAlign=middle;whiteSpace=wrap;rounded=0;" parent="1" vertex="1">
          <mxGeometry x="480" y="480" width="130" height="20" as="geometry" />
        </mxCell>
        <mxCell id="mO4okJdVT60lnkn-CCLk-1" value="&lt;font style=&quot;font-size: 24px&quot; color=&quot;#ff1b0a&quot;&gt;ACID COMPONENTS&lt;/font&gt;" style="text;html=1;strokeColor=#6c8ebf;fillColor=#dae8fc;align=center;verticalAlign=middle;whiteSpace=wrap;rounded=0;" vertex="1" parent="1">
          <mxGeometry x="990" y="10" width="320" height="60" as="geometry" />
        </mxCell>
        <mxCell id="mO4okJdVT60lnkn-CCLk-2" value="&lt;font color=&quot;#ff1b0a&quot; style=&quot;font-size: 14px&quot;&gt;COMPONENT MIGRATION&lt;/font&gt;" style="text;html=1;strokeColor=#d6b656;fillColor=#fff2cc;align=center;verticalAlign=middle;whiteSpace=wrap;rounded=0;" vertex="1" parent="1">
          <mxGeometry x="550" y="695" width="170" height="30" as="geometry" />
        </mxCell>
        <mxCell id="mO4okJdVT60lnkn-CCLk-3" value="" style="endArrow=none;dashed=1;html=1;strokeWidth=6;" edge="1" parent="1" target="mO4okJdVT60lnkn-CCLk-2">
          <mxGeometry width="50" height="50" relative="1" as="geometry">
            <mxPoint x="470" y="710" as="sourcePoint" />
            <mxPoint x="870" y="709.5" as="targetPoint" />
          </mxGeometry>
        </mxCell>
        <mxCell id="mO4okJdVT60lnkn-CCLk-4" value="&lt;font style=&quot;font-size: 21px&quot;&gt;TS-CODE&lt;/font&gt;" style="text;html=1;strokeColor=none;fillColor=none;align=center;verticalAlign=middle;whiteSpace=wrap;rounded=0;" vertex="1" parent="1">
          <mxGeometry x="195" y="480" width="130" height="20" as="geometry" />
        </mxCell>
      </root>
    </mxGraphModel>
  </diagram>
</mxfile>
